<?xml version="1.0" encoding="UTF-8"?>
<svg version="1.1" xmlns="http://www.w3.org/2000/svg" width="128" height="128">
<path d="M0 0 C42.24 0 84.48 0 128 0 C128 42.24 128 84.48 128 128 C85.76 128 43.52 128 0 128 C0 85.76 0 43.52 0 0 Z " fill="#112021" transform="translate(0,0)"/>
<path d="M0 0 C5.83492179 5.40797629 9.22984356 9.88413809 9.828125 17.9609375 C9.80017226 24.73947808 9.72386993 30.89089021 7.5625 37.375 C7.294375 38.22320312 7.02625 39.07140625 6.75 39.9453125 C2.20300833 53.54839591 -6.1030799 65.54639 -17.4375 74.375 C-18.118125 74.99375 -18.79875 75.6125 -19.5 76.25 C-22.18949415 77.81164176 -24.38972949 77.58280253 -27.4375 77.375 C-24.9212822 74.76891727 -22.38615641 72.48118315 -19.4375 70.375 C-19.664375 69.385 -19.89125 68.395 -20.125 67.375 C-20.67271189 63.5967323 -19.66002989 61.05831543 -18.25463867 57.52050781 C-14.00919562 46.37352437 -10.19046741 31.17147084 -14.9375 19.8125 C-17.35403974 15.7935952 -21.06077438 13.01964228 -25.4375 11.375 C-28.55535113 12.02144661 -28.55535113 12.02144661 -29.4375 14.375 C-28.880625 14.436875 -28.32375 14.49875 -27.75 14.5625 C-23.33394273 16.11408769 -21.02098407 19.39558032 -18.6875 23.3125 C-16.45495347 28.96323924 -16.67857441 35.38139132 -16.4375 41.375 C-18.4375 38.375 -18.4375 38.375 -18.4375 36.375 C-19.0975 36.375 -19.7575 36.375 -20.4375 36.375 C-20.1075 32.745 -19.7775 29.115 -19.4375 25.375 C-21.0875 25.045 -22.7375 24.715 -24.4375 24.375 C-26.5625 21.9375 -26.5625 21.9375 -28.4375 19.375 C-29.4275 18.715 -30.4175 18.055 -31.4375 17.375 C-37.77375388 29.52509934 -37.77375388 29.52509934 -42.4375 42.375 C-42.99375775 44.06456794 -43.55624232 45.7520988 -44.125 47.4375 C-44.37636719 48.19160156 -44.62773438 48.94570312 -44.88671875 49.72265625 C-45.06847656 50.26792969 -45.25023437 50.81320313 -45.4375 51.375 C-47.4175 51.375 -49.3975 51.375 -51.4375 51.375 C-51.23825322 43.18776859 -48.88130834 36.74291043 -45.4375 29.375 C-45.11652344 28.64152344 -44.79554687 27.90804687 -44.46484375 27.15234375 C-41.91791226 21.606428 -38.32699146 17.0472822 -34.4375 12.375 C-33.83292969 11.64667969 -33.22835937 10.91835938 -32.60546875 10.16796875 C-24.28089615 0.39249025 -12.90501352 -6.10055185 0 0 Z " fill="#063A11" transform="translate(76.4375,22.625)"/>
<path d="M0 0 C0 0.66 0 1.32 0 2 C0.99 2 1.98 2 3 2 C8.85004385 11.92418153 8.33424424 24.70359006 6.31640625 35.73828125 C5.64502228 38.2150135 4.922175 40.60673631 4 43 C7.09830145 40.47289379 7.73872947 38.08725922 8.625 34.25 C8.87121094 33.1878125 9.11742187 32.125625 9.37109375 31.03125 C10.06474156 27.6879537 10.61460715 24.39145704 11 21 C11.33 21 11.66 21 12 21 C12.2493119 26.9834856 11.81305957 32.26185934 10 38 C9.57460937 39.47533203 9.57460937 39.47533203 9.140625 40.98046875 C3.35193984 59.20643759 -7.96092741 76.33795024 -24.1640625 86.7578125 C-24.76992187 87.16773437 -25.37578125 87.57765625 -26 88 C-26 88.33 -26 88.66 -26 89 C-22.36596206 89.51818689 -21.09020242 89.06040758 -17.984375 86.98046875 C-16.89234527 86.06582882 -15.81481385 85.13368528 -14.75 84.1875 C-13.89184692 83.43654053 -13.89184692 83.43654053 -13.01635742 82.67041016 C-0.50289413 71.46573953 8.59742981 56.97403047 14.6875 41.375 C15.07168091 40.41750854 15.07168091 40.41750854 15.46362305 39.44067383 C17.81592123 32.95884238 16.55738775 27.73191309 13.9375 21.5625 C13.57527344 20.69753906 13.21304688 19.83257812 12.83984375 18.94140625 C12.56269531 18.30074219 12.28554687 17.66007812 12 17 C12.99 16.67 13.98 16.34 15 16 C16.35439668 18.70879335 16.06501451 21.00933268 16 24 C16.99 24 17.98 24 19 24 C20.53616498 31.26187082 19.07979208 36.94985735 17 44 C17.99 43.67 18.98 43.34 20 43 C17.1762287 54.26641747 10.49610768 64.24390827 3 73 C2.31164062 73.82113281 1.62328125 74.64226562 0.9140625 75.48828125 C-12.54191594 91.04528088 -12.54191594 91.04528088 -22 92 C-27.57142857 92.21428571 -27.57142857 92.21428571 -30 91 C-30 90.01 -30 89.02 -30 88 C-32.97 88.495 -32.97 88.495 -36 89 C-36 88.34 -36 87.68 -36 87 C-37.485 87.495 -37.485 87.495 -39 88 C-39 87.34 -39 86.68 -39 86 C-40.65 86 -42.3 86 -44 86 C-44 85.34 -44 84.68 -44 84 C-43.030625 83.814375 -42.06125 83.62875 -41.0625 83.4375 C-29.11605432 79.92808135 -20.85278871 67.67539314 -15.125 57.375 C-8.96890938 45.36207317 -5.3898373 31.69420945 -8.68359375 18.19921875 C-11.00207951 12.4751564 -14.42582681 8.78708659 -20 6 C-26.03326169 5.69291782 -32.08160618 5.68480137 -38 7 C-37.67 6.01 -37.34 5.02 -37 4 C-34.02148438 3.70703125 -34.02148438 3.70703125 -31.04296875 3.4140625 C-28.70011858 3.07334609 -28.70011858 3.07334609 -26 1 C-18.9188501 0.03028839 -13.70744123 0.69029948 -8 5 C-2.0715117 10.9284883 -0.7876371 17.33572176 -0.5 25.4375 C-0.60261851 45.73687219 -10.85211572 63.55605422 -24.625 77.875 C-27.52690163 80.70368851 -30.59955711 82.814001 -34 85 C-34.495 85.99 -34.495 85.99 -35 87 C-21.1966263 82.97069149 -11.12611222 69.64815953 -4.3046875 57.546875 C3.1426663 43.00892686 8.2085904 26.22721342 3.625 10 C1.88771372 5.69755095 0.05555089 3.97911359 -4.0625 1.875 C-12.28546172 -1.51310753 -18.24399925 -1.49998765 -26.66796875 1.24609375 C-28.76588252 1.92431378 -30.85544497 2.49220881 -33 3 C-33 2.34 -33 1.68 -33 1 C-23.55710054 -6.58054984 -10.44586216 -5.00530895 0 0 Z " fill="#063614" transform="translate(93,16)"/>
<path d="M0 0 C5.83492179 5.40797629 9.22984356 9.88413809 9.828125 17.9609375 C9.80017226 24.73947808 9.72386993 30.89089021 7.5625 37.375 C7.294375 38.22320312 7.02625 39.07140625 6.75 39.9453125 C2.20300833 53.54839591 -6.1030799 65.54639 -17.4375 74.375 C-18.118125 74.99375 -18.79875 75.6125 -19.5 76.25 C-22.18949415 77.81164176 -24.38972949 77.58280253 -27.4375 77.375 C-24.81013246 74.64063559 -22.13240687 72.34395023 -19.0625 70.125 C-14.5998889 66.68491845 -11.50414582 63.0732039 -8.4375 58.375 C-7.92316406 57.62476563 -7.40882812 56.87453125 -6.87890625 56.1015625 C0.2787948 45.07049206 3.84282053 31.51606769 2.5625 18.375 C1.29884444 13.46459932 -0.30295789 9.56925485 -3.8125 5.875 C-9.07672785 2.8668698 -14.35554501 1.30590635 -20.4375 2.375 C-32.07502769 8.08796814 -39.90180085 24.63937393 -44.4375 36.375 C-45.83852364 40.96124766 -46.72659649 45.63564329 -47.4375 50.375 C-49.4175 50.87 -49.4175 50.87 -51.4375 51.375 C-51.23825322 43.18776859 -48.88130834 36.74291043 -45.4375 29.375 C-45.11652344 28.64152344 -44.79554687 27.90804687 -44.46484375 27.15234375 C-41.91791226 21.606428 -38.32699146 17.0472822 -34.4375 12.375 C-33.83292969 11.64667969 -33.22835937 10.91835938 -32.60546875 10.16796875 C-24.28089615 0.39249025 -12.90501352 -6.10055185 0 0 Z " fill="#3EAB4F" transform="translate(76.4375,22.625)"/>
<path d="M0 0 C5.00545588 3.72746715 6.84458866 8.01852437 8 14 C10.22739187 34.23667002 0.98871837 54.09337472 -11.3125 69.625 C-16.23889332 75.50166208 -21.60884233 80.73922822 -28 85 C-30.6875 85.125 -30.6875 85.125 -33 85 C-31.82929504 81.48788512 -30.94935646 81.02150708 -28 78.9375 C-14.97055743 69.02603814 -6.75468203 55.54030284 -2 40 C-1.5875 38.783125 -1.175 37.56625 -0.75 36.3125 C1.30365523 27.2577474 1.27094187 16.43417071 -2.72265625 7.9921875 C-5.32842893 3.92813837 -8.37683189 1.54105604 -13 0 C-14.78967404 -0.09419337 -16.58285563 -0.12990998 -18.375 -0.125 C-19.31085938 -0.12757812 -20.24671875 -0.13015625 -21.2109375 -0.1328125 C-23.90729747 -0.00441441 -26.37271509 0.39811291 -29 1 C-20.68670567 -6.6205198 -9.16581671 -4.73074411 0 0 Z " fill="#41B852" transform="translate(91,18)"/>
<path d="M0 0 C2.66305904 1.33152952 3.24864056 3.22232228 4.51171875 5.8203125 C7.16801174 17.6780044 -2.3691717 32.30956484 -8.390625 42.01171875 C-15.10259117 52.45777213 -23.62901922 62.03570313 -34 69 C-36.75 69.1875 -36.75 69.1875 -39 69 C-39 68.01 -39 67.02 -39 66 C-36.9453125 64.37890625 -36.9453125 64.37890625 -34.125 62.5625 C-14.74388295 48.89632772 -4.52168786 25.39651638 -0.4453125 2.71875 C-0.29835937 1.8215625 -0.15140625 0.924375 0 0 Z " fill="#34B848" transform="translate(106,37)"/>
<path d="M0 0 C5.22439636 1.84863256 9.03113043 4.20413376 12 9 C16.03917452 19.08330161 14.86701297 30.82330346 11.3359375 40.890625 C8.10948113 48.40015503 4.29869811 55.65565008 -2 61 C-0.6694194 55.30987484 0.81049729 50.05332463 3.5625 44.875 C8.10890312 36.15193137 10.19270406 25.1432421 7.2421875 15.53125 C5.47173553 11.79517813 3.40857635 8.39521581 0 6 C-2.96814562 5.10492662 -5.94181474 4.49662838 -9 4 C-8.67 3.01 -8.34 2.02 -8 1 C-5.10687304 -0.44656348 -3.23433934 -0.29947586 0 0 Z " fill="#3CB44F" transform="translate(60,27)"/>
<path d="M0 0 C0.99 0 1.98 0 3 0 C3.02712153 1.916588 3.04645097 3.8332873 3.0625 5.75 C3.07410156 6.81734375 3.08570313 7.8846875 3.09765625 8.984375 C2.94533762 13.68797428 2.94533762 13.68797428 2 16 C1.01 16.33 0.02 16.66 -1 17 C-1.33 17.99 -1.66 18.98 -2 20 C-1.34 20 -0.68 20 0 20 C0.33 23.3 0.66 26.6 1 30 C0.34 30 -0.32 30 -1 30 C-1.12375 30.86625 -1.2475 31.7325 -1.375 32.625 C-1.98794849 35.93492186 -2.69971538 38.89376451 -4 42 C-5.485 42.495 -5.485 42.495 -7 43 C-9.19240026 44.92665477 -10.75322305 46.44063892 -11.9375 49.125 C-13.42234691 51.74531808 -15.2056545 52.11757511 -18 53 C-18 49 -18 49 -16.35546875 47.11328125 C-15.64003906 46.51902344 -14.92460938 45.92476562 -14.1875 45.3125 C-13.47980469 44.71050781 -12.77210937 44.10851562 -12.04296875 43.48828125 C-10 42 -10 42 -7 41 C-5.31329259 38.25758364 -4.36273966 35.30301349 -3.375 32.25 C-3.11460938 31.45078125 -2.85421875 30.6515625 -2.5859375 29.828125 C-2.39257812 29.22484375 -2.19921875 28.6215625 -2 28 C-2.33 27.67 -2.66 27.34 -3 27 C-3.56847656 27.71285156 -4.13695313 28.42570312 -4.72265625 29.16015625 C-9.22292695 34.74229503 -13.73131726 40.12845415 -19 45 C-20.299375 46.2065625 -20.299375 46.2065625 -21.625 47.4375 C-24.34462658 49.22672801 -25.80797137 49.36480327 -29 49 C-29 48.01 -29 47.02 -29 46 C-27.515 45.505 -27.515 45.505 -26 45 C-26 44.34 -26 43.68 -26 43 C-24.6015625 41.6953125 -24.6015625 41.6953125 -22.625 40.125 C-13.88746839 32.65332986 -1.28010073 19.49336677 0.4921875 7.734375 C0.49894261 5.09988334 0.37589136 2.60513595 0 0 Z " fill="#073514" transform="translate(114,60)"/>
<path d="M0 0 C0.33 0 0.66 0 1 0 C2.5422341 5.57739455 2.9462216 10.55974812 0.33203125 15.83203125 C-4.93835455 25.05663083 -14.57751609 40.5258387 -25 44 C-25 44.66 -25 45.32 -25 46 C-28.60980118 49.10589492 -31.69024864 51.07016525 -36.5 50.8125 C-37.325 50.544375 -38.15 50.27625 -39 50 C-36.46175478 47.36522197 -33.90584081 45.13054742 -30.9375 43 C-16.44132935 31.7886759 -7.0619399 16.67171694 0 0 Z " fill="#37B748" transform="translate(113,59)"/>
<path d="M0 0 C0.66 0.33 1.32 0.66 2 1 C1.41992188 1.60585938 0.83984375 2.21171875 0.2421875 2.8359375 C-10.59293285 14.45776626 -17.10090438 27.09252162 -19 43 C-22.62326739 44.2077558 -23.64146369 43.54311128 -27 42 C-27.59948329 30.01033426 -21.74075554 19.9629801 -14.1484375 11.171875 C-12.20464547 9.20687796 -10.26368363 7.5774085 -8 6 C-8 6.66 -8 7.32 -8 8 C-7.34 8 -6.68 8 -6 8 C-5.7525 7.4225 -5.505 6.845 -5.25 6.25 C-3.83316683 3.6997003 -2.12372463 1.98214299 0 0 Z " fill="#04420E" transform="translate(41,32)"/>
<path d="M0 0 C0.81017578 0.73283203 0.81017578 0.73283203 1.63671875 1.48046875 C0.49396484 1.46306641 0.49396484 1.46306641 -0.671875 1.4453125 C-13.32090921 0.7679167 -13.32090921 0.7679167 -24.5546875 5.6015625 C-36.16830338 17.66667964 -43.89981111 34.05733448 -46.36328125 50.48046875 C-48.34328125 50.97546875 -48.34328125 50.97546875 -50.36328125 51.48046875 C-50.16403447 43.29323734 -47.80708959 36.84837918 -44.36328125 29.48046875 C-44.04230469 28.74699219 -43.72132812 28.01351562 -43.390625 27.2578125 C-40.84369351 21.71189675 -37.25277271 17.15275095 -33.36328125 12.48046875 C-32.75871094 11.75214844 -32.15414062 11.02382813 -31.53125 10.2734375 C-24.33817837 1.82667147 -11.39344911 -7.32570529 0 0 Z " fill="#46AB55" transform="translate(75.36328125,22.51953125)"/>
<path d="M0 0 C6.27803348 1.64424686 10.36116754 4.43249581 13.875 9.9375 C16.67073857 17.44794562 15.79967708 26.6717616 13 34 C10.24482112 29.54204962 9.97012408 24.37245295 9.23242188 19.28710938 C8.42204187 14.19649022 7.53197832 9.8922065 3.17578125 6.63671875 C2.56089844 6.32347656 1.94601563 6.01023437 1.3125 5.6875 C0.219375 5.130625 -0.87375 4.57375 -2 4 C-1.34 2.68 -0.68 1.36 0 0 Z " fill="#40B957" transform="translate(49,33)"/>
<path d="M0 0 C1.49711296 4.49133889 -0.07595193 7.79394144 -2 12 C-4.25 14.625 -4.25 14.625 -7 17 C-8.1296923 18.16212366 -9.2543788 19.32912672 -10.375 20.5 C-13.73212084 23.8206304 -16.88886718 26.63990523 -21 29 C-23.9375 28.3125 -23.9375 28.3125 -26 27 C-22.51475319 23.45103753 -18.91031183 20.11570264 -15.1875 16.8125 C-9.82647151 11.98765723 -5.33543141 6.77265661 -1 1 C-0.67 0.67 -0.34 0.34 0 0 Z " fill="#3BBA55" transform="translate(112,85)"/>
<path d="M0 0 C0.33 0.66 0.66 1.32 1 2 C1.61875 2.28875 2.2375 2.5775 2.875 2.875 C5.36796335 4.19480413 6.45147781 5.67721672 8 8 C7.67 8.66 7.34 9.32 7 10 C4.75390625 8.09570312 4.75390625 8.09570312 2.5078125 6.19140625 C0.99405921 4.9121848 0.99405921 4.9121848 -1 4 C-1.061875 5.216875 -1.12375 6.43375 -1.1875 7.6875 C-1.77699336 13.11254757 -3.68354282 17.79440563 -5.72265625 22.82421875 C-7.33476961 26.83231711 -8.67613894 30.88906304 -10 35 C-10.99 35 -11.98 35 -13 35 C-12.41853827 23.75840652 -8.20969364 8.20969364 0 0 Z " fill="#3EA54F" transform="translate(45,39)"/>
<path d="M0 0 C0.33 0.99 0.66 1.98 1 3 C1.66 3 2.32 3 3 3 C-0.37636995 12.702621 -7.96457298 20.82287302 -16 27 C-17.00353516 27.82757813 -17.00353516 27.82757813 -18.02734375 28.671875 C-20.72908637 30.49087003 -22.81883654 30.21689751 -26 30 C-23.37263246 27.26563559 -20.69490687 24.96895023 -17.625 22.75 C-9.78122577 16.70055321 -5.17010037 8.32110829 0 0 Z " fill="#40AE5E" transform="translate(75,70)"/>
<path d="M0 0 C2.475 0.495 2.475 0.495 5 1 C0.53552729 9.92894543 -7.31106611 18.00815288 -16 23 C-18.76953125 23.1875 -18.76953125 23.1875 -21 23 C-21 22.01 -21 21.02 -21 20 C-18.9453125 18.37890625 -18.9453125 18.37890625 -16.125 16.5625 C-9.48049939 11.95185431 -4.87857974 6.34956148 0 0 Z " fill="#3FB157" transform="translate(88,83)"/>
<path d="M0 0 C0.99 0 1.98 0 3 0 C5.92716432 20.32168035 5.92716432 20.32168035 2 30 C1.67 30.99 1.34 31.98 1 33 C0.34 33 -0.32 33 -1 33 C-1.66 33.66 -2.32 34.32 -3 35 C-3 31.04 -3 27.08 -3 23 C-2.01 23.33 -1.02 23.66 0 24 C0 16.08 0 8.16 0 0 Z " fill="#34C245" transform="translate(93,31)"/>
<path d="M0 0 C4.97035399 3.70132744 6.90842011 8.03096391 8 14 C8.22494577 18.34732155 8.18145208 22.65187059 8 27 C7.67 27 7.34 27 7 27 C6.80083984 25.48019531 6.80083984 25.48019531 6.59765625 23.9296875 C6.41932416 22.57811796 6.24093575 21.22655586 6.0625 19.875 C5.93198242 18.87726562 5.93198242 18.87726562 5.79882812 17.859375 C5.27369442 13.89169812 4.68185986 9.94373002 4 6 C3.34 6 2.68 6 2 6 C0.5 4 0.5 4 -1 2 C-1.66 2 -2.32 2 -3 2 C-3.33 3.32 -3.66 4.64 -4 6 C-5.46484375 4.73046875 -6.9296875 3.4609375 -8.39453125 2.19140625 C-11.57197475 -0.16655061 -14.56750311 -0.1354315 -18.375 -0.125 C-19.31085938 -0.12757812 -20.24671875 -0.13015625 -21.2109375 -0.1328125 C-23.90729747 -0.00441441 -26.37271509 0.39811291 -29 1 C-20.68670567 -6.6205198 -9.16581671 -4.73074411 0 0 Z " fill="#48AC57" transform="translate(91,18)"/>
<path d="M0 0 C0.66 0 1.32 0 2 0 C5.52190678 10.56572033 4.74814792 21.59068952 0.2265625 31.59375 C-0.17820312 32.3878125 -0.58296875 33.181875 -1 34 C-1.33 34.66 -1.66 35.32 -2 36 C-4.0625 36.625 -4.0625 36.625 -6 37 C-5.80664062 36.3709375 -5.61328125 35.741875 -5.4140625 35.09375 C-5.15367188 34.2378125 -4.89328125 33.381875 -4.625 32.5 C-4.36976562 31.6646875 -4.11453125 30.829375 -3.8515625 29.96875 C-1.79905656 22.81322471 -0.64900561 16.43240223 -0.375 9 C-0.31699219 7.69482422 -0.31699219 7.69482422 -0.2578125 6.36328125 C-0.16459113 4.24249514 -0.08125864 2.12127815 0 0 Z " fill="#3BB94B" transform="translate(81,37)"/>
<path d="M0 0 C0.33 0 0.66 0 1 0 C1.02714735 2.22909871 1.04646254 4.45829367 1.0625 6.6875 C1.07410156 7.92886719 1.08570312 9.17023437 1.09765625 10.44921875 C1.01478673 13.46235454 0.70839449 16.08275339 0 19 C0.66 19 1.32 19 2 19 C2 17.68 2 16.36 2 15 C2.66 15.33 3.32 15.66 4 16 C1.47993033 24.09239764 -1.89982313 31.19138949 -7 38 C-7.99 38.495 -7.99 38.495 -9 39 C-9 38.01 -9 37.02 -9 36 C-9.66 35.67 -10.32 35.34 -11 35 C-10.61328125 34.42894531 -10.2265625 33.85789063 -9.828125 33.26953125 C-3.14025849 22.85698661 -0.44343253 12.30525281 0 0 Z " fill="#033914" transform="translate(74,46)"/>
<path d="M0 0 C0.66 0.33 1.32 0.66 2 1 C1.48050781 1.61746094 0.96101563 2.23492187 0.42578125 2.87109375 C-4.06618123 8.32621269 -7.87457903 13.66440087 -11 20 C-11.43183594 20.85335937 -11.86367188 21.70671875 -12.30859375 22.5859375 C-15.50711496 29.21076778 -17.45813854 35.81718197 -19 43 C-19.99 42.67 -20.98 42.34 -22 42 C-20.44480788 24.89288663 -10.8490018 12.50800409 0 0 Z " fill="#06460F" transform="translate(44,30)"/>
<path d="M0 0 C0.66 0.33 1.32 0.66 2 1 C1.41992188 1.60585938 0.83984375 2.21171875 0.2421875 2.8359375 C-10.39115788 14.24134096 -16.77928211 26.43109608 -19 42 C-19.99 42 -20.98 42 -22 42 C-21.94296557 29.62352953 -16.20896705 17.1821951 -8 8 C-7.34 8 -6.68 8 -6 8 C-5.7525 7.4225 -5.505 6.845 -5.25 6.25 C-3.83316683 3.6997003 -2.12372463 1.98214299 0 0 Z " fill="#4B9E5E" transform="translate(41,32)"/>
<path d="M0 0 C0.33 0.99 0.66 1.98 1 3 C-0.70342586 4.90044131 -2.41247117 6.79528874 -4.125 8.6875 C-4.599375 9.21794922 -5.07375 9.74839844 -5.5625 10.29492188 C-14.83778265 20.51026696 -14.83778265 20.51026696 -23 21 C-19.93575602 17.83690944 -16.75883385 14.89383543 -13.4375 12 C-10.93427707 9.80295641 -8.83725621 7.79657027 -6.75 5.1875 C-4.77236865 2.71546081 -2.78151491 1.46802176 0 0 Z " fill="#044311" transform="translate(77,80)"/>
<path d="M0 0 C2.31 0.66 4.62 1.32 7 2 C7 2.66 7 3.32 7 4 C7.598125 4.20625 8.19625 4.4125 8.8125 4.625 C11.94382473 6.59326126 12.63076588 8.57691471 14 12 C14.33723633 14.80743219 14.28701661 17.55281087 14.1875 20.375 C14.17396484 21.11105469 14.16042969 21.84710938 14.14648438 22.60546875 C14.11144869 24.40396743 14.05765288 26.20208422 14 28 C13.34 28 12.68 28 12 28 C11.98582031 27.32195313 11.97164062 26.64390625 11.95703125 25.9453125 C11.58911766 18.76602576 10.18967466 12.94091434 6 7 C4.08519311 5.38185333 2.17849009 4.266564 0 3 C0 2.01 0 1.02 0 0 Z " fill="#082F15" transform="translate(53,32)"/>
<path d="M0 0 C1.32 0 2.64 0 4 0 C3.81026951 8.34814138 -1.12272841 16.41856718 -6.9375 22.25 C-7.618125 22.8275 -8.29875 23.405 -9 24 C-7.41731321 17.23176217 -5.37259233 11.22883902 -2.0859375 5.09375 C-0.88165035 2.90506796 -0.88165035 2.90506796 0 0 Z " fill="#45B050" transform="translate(67,64)"/>
<path d="M0 0 C0 3.87204476 -1.15293409 4.58435649 -3.6875 7.4375 C-10.58467407 15.8213441 -13.47758734 25.58223065 -16 36 C-16.66 36 -17.32 36 -18 36 C-18.60163862 23.9672276 -12.73622178 13.93248079 -5.05078125 5.171875 C-3.3938789 3.41713651 -1.72543309 1.68709014 0 0 Z " fill="#47A45A" transform="translate(32,38)"/>
<path d="M0 0 C3.78848235 0.0841885 5.50680448 0.52050435 8.25 3.1875 C11.44905408 8.66203188 12.70545049 17.24965634 11.54296875 23.4296875 C11.36378906 23.94789062 11.18460938 24.46609375 11 25 C10.67 23.35 10.34 21.7 10 20 C9.34 20 8.68 20 8 20 C8.33 16.37 8.66 12.74 9 9 C7.35 8.67 5.7 8.34 4 8 C2.41796875 6.37109375 2.41796875 6.37109375 1.1875 4.4375 C0.76855469 3.79683594 0.34960938 3.15617187 -0.08203125 2.49609375 C-0.38496094 2.00238281 -0.68789063 1.50867187 -1 1 C-0.67 0.67 -0.34 0.34 0 0 Z " fill="#063215" transform="translate(48,39)"/>
<path d="M0 0 C0.66 0 1.32 0 2 0 C4.45163204 8.2110216 3.03769268 17.62433762 2 26 C-0.475 25.01 -0.475 25.01 -3 24 C-2.5359375 22.515 -2.5359375 22.515 -2.0625 21 C-0.31795655 14.17029798 -0.32328707 7.01022481 0 0 Z " fill="#36B944" transform="translate(70,40)"/>
<path d="M0 0 C0.99 0.33 1.98 0.66 3 1 C2.59007812 1.79664063 2.18015625 2.59328125 1.7578125 3.4140625 C1.21898437 4.47367188 0.68015625 5.53328125 0.125 6.625 C-0.40867187 7.66914062 -0.94234375 8.71328125 -1.4921875 9.7890625 C-4.01100489 15.15296897 -5.29456322 20.12136018 -6 26 C-5.34 26 -4.68 26 -4 26 C-4 26.99 -4 27.98 -4 29 C-5.32 28.67 -6.64 28.34 -8 28 C-9.09651823 24.58860997 -8.94215473 21.79344419 -8.5625 18.25 C-8.46066406 17.26515625 -8.35882813 16.2803125 -8.25390625 15.265625 C-8.17011719 14.51796875 -8.08632812 13.7703125 -8 13 C-6.68 12.67 -5.36 12.34 -4 12 C-4.0825 10.7625 -4.165 9.525 -4.25 8.25 C-4.2737948 4.89493302 -4.19641677 4.24552096 -2 1.5 C-1.34 1.005 -0.68 0.51 0 0 Z " fill="#063415" transform="translate(20,48)"/>
<path d="M0 0 C2.18749901 4.37499801 3.13707121 6.95812452 3.125 11.9375 C3.12757812 12.99839844 3.13015625 14.05929688 3.1328125 15.15234375 C3 18 3 18 2 21 C1.34 21 0.68 21 0 21 C0 22.32 0 23.64 0 25 C-0.66 25 -1.32 25 -2 25 C-1.86155153 21.20802551 -1.71299256 17.4165141 -1.5625 13.625 C-1.52318359 12.54476562 -1.48386719 11.46453125 -1.44335938 10.3515625 C-1.40146484 9.3203125 -1.35957031 8.2890625 -1.31640625 7.2265625 C-1.27974854 6.27346191 -1.24309082 5.32036133 -1.20532227 4.33837891 C-1 2 -1 2 0 0 Z " fill="#042813" transform="translate(76,40)"/>
<path d="M0 0 C11.33960177 -0.44469027 11.33960177 -0.44469027 16.3125 4.125 C16.869375 4.74375 17.42625 5.3625 18 6 C17.67 6.99 17.34 7.98 17 9 C16.34 9 15.68 9 15 9 C14.67 9.66 14.34 10.32 14 11 C13.67128906 10.51789062 13.34257813 10.03578125 13.00390625 9.5390625 C9.40164727 4.75557496 6.6737175 3.1188171 0.7578125 2.19140625 C0.17773438 2.12824219 -0.40234375 2.06507812 -1 2 C-0.67 1.34 -0.34 0.68 0 0 Z " fill="#37BB46" transform="translate(65,23)"/>
<path d="M0 0 C2.71918783 1.35959392 3.34438466 3.28876411 4.46484375 6.01953125 C5.49669227 9.83812394 4.7427011 13.5145978 3 17 C2.34 17 1.68 17 1 17 C1 15.02 1 13.04 1 11 C0.34 11 -0.32 11 -1 11 C-1 13.31 -1 15.62 -1 18 C-1.66 18 -2.32 18 -3 18 C-2.6889315 15.93728361 -2.37608484 13.87483534 -2.0625 11.8125 C-1.88847656 10.66394531 -1.71445313 9.51539063 -1.53515625 8.33203125 C-1.08620687 5.53674788 -0.57917838 2.77066414 0 0 Z " fill="#3ABE4C" transform="translate(106,37)"/>
<path d="M0 0 C5.19822672 1.36144033 8.09543873 3.46730171 12 7 C11.67 8.32 11.34 9.64 11 11 C6.12134885 10.5818299 4.28667379 8.45965662 1 5 C0.01 4.67 -0.98 4.34 -2 4 C-1.34 2.68 -0.68 1.36 0 0 Z " fill="#36B549" transform="translate(49,33)"/>
<path d="M0 0 C0.33 0.99 0.66 1.98 1 3 C1.66 3 2.32 3 3 3 C1.65070536 6.83663072 -0.07751025 9.65172569 -2.625 12.8125 C-3.25664063 13.60269531 -3.88828125 14.39289063 -4.5390625 15.20703125 C-5.26222656 16.09455078 -5.26222656 16.09455078 -6 17 C-7.32 16.34 -8.64 15.68 -10 15 C-9.61328125 14.50371094 -9.2265625 14.00742188 -8.828125 13.49609375 C-5.49729049 9.15116853 -2.60742538 4.81370839 0 0 Z " fill="#39B358" transform="translate(75,70)"/>
<path d="M0 0 C1.49223551 4.47670653 -0.0571969 7.81380917 -2 12 C-3.53831537 13.9856593 -5.06011566 15.3746915 -7 17 C-8.1875 15.375 -8.1875 15.375 -9 13 C-7.15294254 7.80515088 -3.66377494 4.00762436 0 0 Z " fill="#3BAE55" transform="translate(112,85)"/>
<path d="M0 0 C0.66 0.66 1.32 1.32 2 2 C1.68155994 8.05036112 0.08398334 13.33785658 -2 19 C-2.99 19 -3.98 19 -5 19 C-3.79310345 3.79310345 -3.79310345 3.79310345 0 0 Z " fill="#40B258" transform="translate(37,55)"/>
<path d="M0 0 C2 3 2 3 2 6 C-0.37188891 8.19128824 -3.04212987 9.72249695 -6 11 C-9.5 10.8125 -9.5 10.8125 -12 10 C-8.40945767 6.11024581 -4.26101118 3.10267805 0 0 Z " fill="#45AE55" transform="translate(86,99)"/>
<path d="M0 0 C-0.45020943 5.85272256 -3.03839227 10.08220119 -6 15 C-6.66 15 -7.32 15 -8 15 C-9.03274898 12.31485266 -9.07566569 11.2078412 -8.07421875 8.45703125 C-7.61660156 7.58433594 -7.15898438 6.71164063 -6.6875 5.8125 C-6.23761719 4.93207031 -5.78773437 4.05164063 -5.32421875 3.14453125 C-3.75013872 0.5953574 -2.99667676 0 0 0 Z " fill="#0B311A" transform="translate(110,60)"/>
<path d="M0 0 C0.99 0.33 1.98 0.66 3 1 C3 3.31 3 5.62 3 8 C2.34 8 1.68 8 1 8 C1 12.62 1 17.24 1 22 C0.34 22.33 -0.32 22.66 -1 23 C-1.02887512 19.35418313 -1.04675585 15.70839537 -1.0625 12.0625 C-1.07087891 11.02158203 -1.07925781 9.98066406 -1.08789062 8.90820312 C-1.09272461 7.42416992 -1.09272461 7.42416992 -1.09765625 5.91015625 C-1.10289307 4.99371338 -1.10812988 4.07727051 -1.11352539 3.13305664 C-1 1 -1 1 0 0 Z " fill="#092417" transform="translate(88,39)"/>
<path d="M0 0 C1.43859375 -0.00773437 1.43859375 -0.00773437 2.90625 -0.015625 C5.5 0.25 5.5 0.25 8.5 2.25 C5.53 1.92 2.56 1.59 -0.5 1.25 C-0.5 2.24 -0.5 3.23 -0.5 4.25 C-1.58667969 4.34087891 -1.58667969 4.34087891 -2.6953125 4.43359375 C-7.67116533 4.86483433 -12.58680391 5.32047641 -17.5 6.25 C-17.17 5.26 -16.84 4.27 -16.5 3.25 C-13.52148438 2.95703125 -13.52148438 2.95703125 -10.54296875 2.6640625 C-6.44186746 1.83286415 -4.48732422 -0.0241254 0 0 Z " fill="#063D0F" transform="translate(72.5,16.75)"/>
<path d="M0 0 C0.33 0 0.66 0 1 0 C1.08142927 1.7492214 1.13938541 3.49954542 1.1875 5.25 C1.22230469 6.22453125 1.25710937 7.1990625 1.29296875 8.203125 C0.95177313 11.46040587 0.41890705 12.79622351 -2 15 C-3.65 15 -5.3 15 -7 15 C-3.535 7.575 -3.535 7.575 0 0 Z " fill="#37B344" transform="translate(112,61)"/>
<path d="M0 0 C0.99 0 1.98 0 3 0 C3.02712153 1.916588 3.04645097 3.8332873 3.0625 5.75 C3.07410156 6.81734375 3.08570312 7.8846875 3.09765625 8.984375 C2.94533762 13.68797428 2.94533762 13.68797428 2 16 C1.01 16.33 0.02 16.66 -1 17 C-1.66 17.99 -2.32 18.98 -3 20 C-3.33 19.34 -3.66 18.68 -4 18 C-3.360625 17.030625 -2.72125 16.06125 -2.0625 15.0625 C0.8793654 10.29081454 0.35328104 5.42678932 0 0 Z " fill="#0A4017" transform="translate(114,60)"/>
<path d="M0 0 C2.875 1 2.875 1 5 2 C4.01 2.33 3.02 2.66 2 3 C2.33 4.65 2.66 6.3 3 8 C2.13375 7.525625 1.2675 7.05125 0.375 6.5625 C-2.85387374 5.06765105 -5.49033826 4.41781687 -9 4 C-8.67 3.01 -8.34 2.02 -8 1 C-5.21084611 -0.39457694 -3.09726736 -0.1821922 0 0 Z " fill="#49AC4F" transform="translate(60,27)"/>
<path d="M0 0 C0.33 0.66 0.66 1.32 1 2 C-0.17127278 4.71818102 -1.40043283 7.31000364 -2.75 9.9375 C-3.29140625 11.03094727 -3.29140625 11.03094727 -3.84375 12.14648438 C-5.59602783 15.60977263 -7.12413607 18.33987711 -10 21 C-10 20.01 -10 19.02 -10 18 C-10.99 18 -11.98 18 -13 18 C-12.34 16.35 -11.68 14.7 -11 13 C-10.67 13.99 -10.34 14.98 -10 16 C-7.68333005 13.87528271 -6.25041422 11.88372366 -4.875 9.0625 C-4.54242188 8.39347656 -4.20984375 7.72445312 -3.8671875 7.03515625 C-2.93405845 5.01536653 -2.93405845 5.01536653 -2.5078125 2.80859375 C-2.25644531 1.91333984 -2.25644531 1.91333984 -2 1 C-1.34 0.67 -0.68 0.34 0 0 Z " fill="#023309" transform="translate(112,59)"/>
<path d="M0 0 C3.3 0 6.6 0 10 0 C9.67 0.99 9.34 1.98 9 3 C10.2684375 2.9071875 10.2684375 2.9071875 11.5625 2.8125 C15.73619843 3.04015628 18.25432947 4.20207814 22 6 C19 8 19 8 16.3125 7.625 C15.549375 7.41875 14.78625 7.2125 14 7 C14 6.01 14 5.02 14 4 C12.02 4.33 10.04 4.66 8 5 C8 4.34 8 3.68 8 3 C7.01 3.33 6.02 3.66 5 4 C5 3.34 5 2.68 5 2 C3.35 2 1.7 2 0 2 C0 1.34 0 0.68 0 0 Z " fill="#0B3A1A" transform="translate(49,100)"/>
<path d="M0 0 C0.33 0 0.66 0 1 0 C1.02714735 2.22909871 1.04646254 4.45829367 1.0625 6.6875 C1.07410156 7.92886719 1.08570312 9.17023437 1.09765625 10.44921875 C1.01478673 13.46235454 0.70839449 16.08275339 0 19 C0.66 19 1.32 19 2 19 C2 17.68 2 16.36 2 15 C2.66 15.33 3.32 15.66 4 16 C2.68 19.63 1.36 23.26 0 27 C-0.66 26.67 -1.32 26.34 -2 26 C-1.814375 25.278125 -1.62875 24.55625 -1.4375 23.8125 C-0.82962526 21.0948901 -0.82962526 21.0948901 -1.53125 18.84375 C-2.16747962 14.98395699 -1.61611715 11.53531112 -1.0625 7.6875 C-0.96259766 6.94693359 -0.86269531 6.20636719 -0.75976562 5.44335938 C-0.51380065 3.62790363 -0.25789626 1.81379929 0 0 Z " fill="#0B4B1C" transform="translate(74,46)"/>
<path d="M0 0 C1.65 0 3.3 0 5 0 C0.88621444 6.70459519 0.88621444 6.70459519 -2.8125 7.9375 C-3.8953125 7.9684375 -3.8953125 7.9684375 -5 8 C-5.33 9.32 -5.66 10.64 -6 12 C-7.32 12.33 -8.64 12.66 -10 13 C-9.54625 12.4225 -9.0925 11.845 -8.625 11.25 C-7.15886484 9.2199667 -6.05142216 7.26460157 -5 5 C-4.34 5.33 -3.68 5.66 -3 6 C-2.690625 5.38125 -2.38125 4.7625 -2.0625 4.125 C-1.375 2.75 -0.6875 1.375 0 0 Z " fill="#0C2B1A" transform="translate(106,86)"/>
<path d="M0 0 C0.99 0 1.98 0 3 0 C2.01 4.95 1.02 9.9 0 15 C-0.99 15 -1.98 15 -3 15 C-2.22095672 4.44191344 -2.22095672 4.44191344 0 0 Z " fill="#43A75A" transform="translate(22,59)"/>
<path d="M0 0 C0.66 0.33 1.32 0.66 2 1 C1.38511719 1.80824219 0.77023438 2.61648437 0.13671875 3.44921875 C-0.67981713 4.52854778 -1.49621611 5.60798038 -2.3125 6.6875 C-2.71662109 7.21794922 -3.12074219 7.74839844 -3.53710938 8.29492188 C-5.90088642 11.42740691 -8.04830588 14.59558857 -10 18 C-10.99 17.34 -11.98 16.68 -13 16 C-8.80898673 10.53184364 -4.52923792 5.19205322 0 0 Z " fill="#449F5C" transform="translate(48,28)"/>
<path d="M0 0 C0.33 0.99 0.66 1.98 1 3 C1.99 3 2.98 3 4 3 C4.33 2.34 4.66 1.68 5 1 C4.43555175 5.34863652 2.84572036 8.17827655 0.4375 11.8125 C-0.52349609 13.27623047 -0.52349609 13.27623047 -1.50390625 14.76953125 C-2.24447266 15.87361328 -2.24447266 15.87361328 -3 17 C-5 14 -5 14 -5 12 C-4.0409375 11.5978125 -4.0409375 11.5978125 -3.0625 11.1875 C-0.66868314 10.11332248 -0.66868314 10.11332248 0 7 C-0.32033957 4.99787771 -0.65259077 2.99760305 -1 1 C-0.67 0.67 -0.34 0.34 0 0 Z " fill="#43B859" transform="translate(99,64)"/>
<path d="M0 0 C4.65950677 1.55316892 7.64326143 3.32131102 9.9140625 7.8046875 C12.51339942 14.43664059 12.29340173 20.96922516 12 28 C11.67 28 11.34 28 11 28 C10.86722656 26.98679687 10.73445313 25.97359375 10.59765625 24.9296875 C10.41932416 23.57811796 10.24093575 22.22655586 10.0625 20.875 C9.97548828 20.20984375 9.88847656 19.5446875 9.79882812 18.859375 C9.27369442 14.89169812 8.68185986 10.94373002 8 7 C7.34 7 6.68 7 6 7 C1.34090909 2.68181818 1.34090909 2.68181818 0 0 Z " fill="#3EA252" transform="translate(87,17)"/>
<path d="M0 0 C3.9958976 2.39753856 4.84192392 4.55216798 6 9 C6.1853822 11.75347091 6.28057881 14.3780033 6.25 17.125 C6.25773437 17.82753906 6.26546875 18.53007813 6.2734375 19.25390625 C6.25930023 22.99321394 6.07127896 25.82732667 4 29 C4.01160156 27.77023438 4.02320312 26.54046875 4.03515625 25.2734375 C4.04454022 23.64062653 4.05363977 22.0078139 4.0625 20.375 C4.07087891 19.56675781 4.07925781 18.75851563 4.08789062 17.92578125 C4.1058955 13.49658082 3.89622662 9.36116576 3 5 C1.68 4.67 0.36 4.34 -1 4 C-0.67 2.68 -0.34 1.36 0 0 Z " fill="#45B557" transform="translate(68,33)"/>
<path d="M0 0 C0.66 0 1.32 0 2 0 C3.59412284 3.18824568 3.10174735 6.62896662 3.0625 10.125 C3.05798828 10.87910156 3.05347656 11.63320313 3.04882812 12.41015625 C3.03703499 14.27347127 3.01909942 16.13674555 3 18 C2.34 18 1.68 18 1 18 C0.67 12.06 0.34 6.12 0 0 Z " fill="#0B281C" transform="translate(64,42)"/>
<path d="M0 0 C0 3.82027219 -1.26088494 5.22540002 -3.375 8.375 C-5.69644956 11.8428444 -7.58432935 15.06758153 -9 19 C-9.99 18.34 -10.98 17.68 -12 17 C-8.47461354 10.7868189 -4.82104056 5.28018728 0 0 Z " fill="#06510D" transform="translate(32,40)"/>
<path d="M0 0 C0.33 0 0.66 0 1 0 C2.22578558 6.58581159 2.97034018 11.51178971 -0.9375 17.25 C-1.92879388 18.52355296 -2.93986722 19.78315194 -4 21 C-4.99 20.34 -5.98 19.68 -7 19 C-7.66 19.33 -8.32 19.66 -9 20 C-8.505 18.515 -8.505 18.515 -8 17 C-7.21625 16.896875 -6.4325 16.79375 -5.625 16.6875 C-2.66954819 16.22404978 -2.66954819 16.22404978 -1 13 C-0.5396236 9.80193335 -0.5396236 9.80193335 -0.375 6.3125 C-0.30023438 5.13300781 -0.22546875 3.95351563 -0.1484375 2.73828125 C-0.09945312 1.83464844 -0.05046875 0.93101563 0 0 Z " fill="#47AE59" transform="translate(113,59)"/>
<path d="M0 0 C0.66 0 1.32 0 2 0 C2.93619813 3.15506142 3.1057123 5.96586502 3.0625 9.25 C3.05347656 10.14203125 3.04445313 11.0340625 3.03515625 11.953125 C3.02355469 12.62859375 3.01195313 13.3040625 3 14 C2.01 14.33 1.02 14.66 0 15 C0 10.05 0 5.1 0 0 Z " fill="#39C64A" transform="translate(70,40)"/>
<path d="M0 0 C1.65 0 3.3 0 5 0 C1.23156953 4.12172083 -2.88904305 7.63068221 -8 10 C-8.66 9.67 -9.32 9.34 -10 9 C-7.29691888 5.19566361 -5.37939056 3.53870479 -1 2 C-0.67 1.34 -0.34 0.68 0 0 Z " fill="#072D1C" transform="translate(48,24)"/>
<path d="M0 0 C-1.31224548 3.93673644 -2.91910327 6.22719294 -6 9 C-6.66 8.67 -7.32 8.34 -8 8 C-7.6641593 4.89347355 -7.40950721 3.39585697 -5.125 1.1875 C-3 0 -3 0 0 0 Z " fill="#0A2D0C" transform="translate(92,76)"/>
<path d="M0 0 C2.55542423 1.1357441 4.43077828 2.34872527 6.625 4.125 C8.75730599 6.2065481 8.75730599 6.2065481 11 6 C11.33 7.65 11.66 9.3 12 11 C11.34 11 10.68 11 10 11 C9.67 11.99 9.34 12.98 9 14 C9 12.68 9 11.36 9 10 C8.01 9.67 7.02 9.34 6 9 C4.59886384 7.04690112 3.26660533 5.04291182 2 3 C1.34 2.01 0.68 1.02 0 0 Z " fill="#3DC046" transform="translate(71,26)"/>
<path d="M0 0 C3.87302138 1.14430177 7.00263439 2.23320098 10 5 C10 5.66 10 6.32 10 7 C9.13375 6.690625 8.2675 6.38125 7.375 6.0625 C4.23849262 5.07508101 1.24932587 4.46418941 -2 4 C-1.34 2.68 -0.68 1.36 0 0 Z " fill="#3CB254" transform="translate(49,33)"/>
<path d="M0 0 C0.99 0.495 0.99 0.495 2 1 C2.4140625 3.06640625 2.4140625 3.06640625 2.625 5.5625 C2.69976562 6.38878906 2.77453125 7.21507812 2.8515625 8.06640625 C2.92503906 9.02353516 2.92503906 9.02353516 3 10 C3.99 10 4.98 10 6 10 C5.34 12.97 4.68 15.94 4 19 C2.08264389 15.16528777 1.47007909 12.55944503 0.875 8.375 C0.70742188 7.22773437 0.53984375 6.08046875 0.3671875 4.8984375 C0 2 0 2 0 0 Z " fill="#49A45C" transform="translate(58,48)"/>
<path d="M0 0 C-0.66 0 -1.32 0 -2 0 C-1.67 0.99 -1.34 1.98 -1 3 C-2.65 4.65 -4.3 6.3 -6 8 C-6 6.68 -6 5.36 -6 4 C-6.66 4 -7.32 4 -8 4 C-7.1875 2.0625 -7.1875 2.0625 -6 0 C-3 -1 -3 -1 0 0 Z " fill="#39B041" transform="translate(102,88)"/>
<path d="M0 0 C0.33 0 0.66 0 1 0 C1.1953125 6.0546875 1.1953125 6.0546875 1 8 C0.34 8.66 -0.32 9.32 -1 10 C-1.60311615 11.68761858 -2.13850237 13.40014476 -2.625 15.125 C-2.88539062 16.03507812 -3.14578125 16.94515625 -3.4140625 17.8828125 C-3.60742188 18.58148438 -3.80078125 19.28015625 -4 20 C-4.33 20 -4.66 20 -5 20 C-5.30873438 14.98306635 -4.26671727 11.30680076 -2.5 6.625 C-2.26152344 5.98433594 -2.02304687 5.34367187 -1.77734375 4.68359375 C-1.19358688 3.11912535 -0.59800276 1.55907863 0 0 Z " fill="#043712" transform="translate(43,48)"/>
<path d="M0 0 C1.32 0.33 2.64 0.66 4 1 C0.66666667 4.33333333 -2.66666667 7.66666667 -6 11 C-6 9.35 -6 7.7 -6 6 C-5.34 6 -4.68 6 -4 6 C-4 5.34 -4 4.68 -4 4 C-3.34 4 -2.68 4 -2 4 C-1.34 2.68 -0.68 1.36 0 0 Z " fill="#072D12" transform="translate(30,36)"/>
<path d="M0 0 C0.33 0 0.66 0 1 0 C1.3483523 8.36045512 -0.22930325 15.08372357 -3 23 C-4.31150287 19.33653532 -3.65830107 16.87989234 -2.625 13.1875 C-1.44232586 8.7754234 -0.51527796 4.53444602 0 0 Z " fill="#033E14" transform="translate(104,37)"/>
<path d="M0 0 C0.66 0 1.32 0 2 0 C3.31886422 3.95659266 3.26518132 6.82339427 3 11 C2.01 11.66 1.02 12.32 0 13 C0 8.71 0 4.42 0 0 Z " fill="#33C945" transform="translate(81,37)"/>
<path d="M0 0 C0 1.32 0 2.64 0 4 C-0.99 4.495 -0.99 4.495 -2 5 C-2.66 4.67 -3.32 4.34 -4 4 C-5.37342831 3.9310528 -6.75002102 3.91532292 -8.125 3.9375 C-10.043125 3.9684375 -10.043125 3.9684375 -12 4 C-8.41084094 -0.78554541 -5.58334594 -0.37222306 0 0 Z " fill="#094818" transform="translate(64,24)"/>
<path d="M0 0 C0.33 0.66 0.66 1.32 1 2 C1.66 2 2.32 2 3 2 C3 3.65 3 5.3 3 7 C1.03533587 8.06775224 -0.96855359 9.06553465 -3 10 C-3.66 9.67 -4.32 9.34 -5 9 C-3.35 6.03 -1.7 3.06 0 0 Z " fill="#0A3C18" transform="translate(91,68)"/>
<path d="M0 0 C2.71682296 1.35841148 3.34052688 3.28705991 4.46875 6.01171875 C5.30773644 9.15174888 4.70010111 11.88136776 4 15 C3.67 15 3.34 15 3 15 C2.8046875 12.94921875 2.609375 10.8984375 2.4140625 8.84765625 C2.20910156 7.93306641 2.20910156 7.93306641 2 7 C1.34 6.67 0.68 6.34 0 6 C-0.33 6.99 -0.66 7.98 -1 9 C-0.67 6.03 -0.34 3.06 0 0 Z " fill="#49AC5F" transform="translate(106,37)"/>
<path d="M0 0 C1.32 0 2.64 0 4 0 C3.67 2.31 3.34 4.62 3 7 C1.68 7 0.36 7 -1 7 C-0.67 4.69 -0.34 2.38 0 0 Z " fill="#44BC5A" transform="translate(67,64)"/>
<path d="M0 0 C0 3.9308352 -1.33746371 5.00319931 -3.8125 8 C-4.52019531 8.86625 -5.22789063 9.7325 -5.95703125 10.625 C-7.57653444 12.50771116 -9.20945558 14.28288485 -11 16 C-10.58269656 11.14329827 -8.1999142 8.54863925 -4.9375 5.1875 C-4.46505859 4.68541016 -3.99261719 4.18332031 -3.50585938 3.66601562 C-2.34591548 2.43577211 -1.17411185 1.21672935 0 0 Z " fill="#4E9961" transform="translate(32,38)"/>
<path d="M0 0 C2.99324263 1.0975223 3.84610901 1.67682892 5.25 4.625 C5.4975 5.40875 5.745 6.1925 6 7 C4.68 7 3.36 7 2 7 C2 6.34 2 5.68 2 5 C1.34 5 0.68 5 0 5 C-0.5625 3.0625 -0.5625 3.0625 -1 1 C-0.67 0.67 -0.34 0.34 0 0 Z " fill="#2EC844" transform="translate(88,19)"/>
<path d="M0 0 C1.32 0.66 2.64 1.32 4 2 C0.67692308 5.93846154 0.67692308 5.93846154 -2.75 6.25 C-3.4925 6.1675 -4.235 6.085 -5 6 C-3.86695008 2.60085025 -2.87481525 1.94745549 0 0 Z " fill="#40AE4F" transform="translate(63,97)"/>
<path d="M0 0 C1.67542976 0.28604898 3.34385343 0.61781233 5 1 C3.75 3.5 3.75 3.5 2 6 C0.68 6 -0.64 6 -2 6 C-1.125 1.125 -1.125 1.125 0 0 Z " fill="#43B85B" transform="translate(88,83)"/>
<path d="M0 0 C0.33 0.66 0.66 1.32 1 2 C1.61875 2.28875 2.2375 2.5775 2.875 2.875 C5.36796335 4.19480413 6.45147781 5.67721672 8 8 C7.67 8.66 7.34 9.32 7 10 C5.53515625 8.69791667 4.0703125 7.39583333 2.60546875 6.09375 C0.910552 4.71848759 0.910552 4.71848759 -2 5 C-1.34 3.35 -0.68 1.7 0 0 Z " fill="#4D9862" transform="translate(45,39)"/>
<path d="M0 0 C0.66 0 1.32 0 2 0 C2.33 0.99 2.66 1.98 3 3 C1.1875 5.6875 1.1875 5.6875 -1 8 C-1.66 8 -2.32 8 -3 8 C-2.25 2.25 -2.25 2.25 0 0 Z " fill="#33BC50" transform="translate(108,92)"/>
<path d="M0 0 C2 1 2 1 3 3 C0.44931155 5.35448165 -0.71017358 5.98327924 -4.25 6.1875 C-5.1575 6.125625 -6.065 6.06375 -7 6 C-4.74259377 3.66475218 -2.7194239 1.81294927 0 0 Z " fill="#4DA660" transform="translate(56,94)"/>
<path d="M0 0 C2.56864728 1.28432364 2.946539 2.36634751 4 5 C4 6.32 4 7.64 4 9 C3.34 9 2.68 9 2 9 C1.896875 8.360625 1.79375 7.72125 1.6875 7.0625 C1.3471875 6.0415625 1.3471875 6.0415625 1 5 C0.01 4.67 -0.98 4.34 -2 4 C-2.33 3.01 -2.66 2.02 -3 1 C-2.01 0.67 -1.02 0.34 0 0 Z " fill="#0E261C" transform="translate(71,27)"/>
<path d="M0 0 C0.66 0 1.32 0 2 0 C2 2.31 2 4.62 2 7 C1.01 7.33 0.02 7.66 -1 8 C-1.33 7.34 -1.66 6.68 -2 6 C-2.99 6.495 -2.99 6.495 -4 7 C-2.92598892 4.08482708 -2.22189824 2.22189824 0 0 Z " fill="#4BB852" transform="translate(101,82)"/>
<path d="M0 0 C0.33 0 0.66 0 1 0 C1.0270043 1.45823212 1.04639787 2.91660675 1.0625 4.375 C1.07410156 5.18710938 1.08570312 5.99921875 1.09765625 6.8359375 C1 9 1 9 0 11 C-2.0625 11.625 -2.0625 11.625 -4 12 C-3.52309796 10.37433394 -3.04340334 8.74948689 -2.5625 7.125 C-2.29566406 6.22007813 -2.02882813 5.31515625 -1.75390625 4.3828125 C-1 2 -1 2 0 0 Z " fill="#39BC48" transform="translate(79,62)"/>
<path d="M0 0 C1.125 1.6875 1.125 1.6875 2 4 C1.25 6.6875 1.25 6.6875 0 9 C-0.99 9.495 -0.99 9.495 -2 10 C-2 9.01 -2 8.02 -2 7 C-2.66 6.67 -3.32 6.34 -4 6 C-2.68 4.02 -1.36 2.04 0 0 Z " fill="#09441D" transform="translate(67,75)"/>
<path d="M0 0 C1.093125 0.0825 2.18625 0.165 3.3125 0.25 C3.6425 0.91 3.9725 1.57 4.3125 2.25 C2.6625 2.91 1.0125 3.57 -0.6875 4.25 C-1.0175 3.92 -1.3475 3.59 -1.6875 3.25 C-2.3475 3.91 -3.0075 4.57 -3.6875 5.25 C-4.6775 4.92 -5.6675 4.59 -6.6875 4.25 C-4.79150483 0.68106792 -4.16790733 0.28256999 0 0 Z " fill="#0C4D14" transform="translate(46.6875,36.75)"/>
<path d="M0 0 C0.66 1.32 1.32 2.64 2 4 C1.01 5.485 1.01 5.485 0 7 C-2.475 6.01 -2.475 6.01 -5 5 C-3.35 3.35 -1.7 1.7 0 0 Z " fill="#4FAD5D" transform="translate(91,107)"/>
<path d="M0 0 C0.66 0.33 1.32 0.66 2 1 C0.79618552 3.49361571 -0.45428722 5.68143083 -2 8 C-2.66 8 -3.32 8 -4 8 C-4.25 5.6875 -4.25 5.6875 -4 3 C-2 1.1875 -2 1.1875 0 0 Z " fill="#114228" transform="translate(37,32)"/>
<path d="M0 0 C-0.33 1.98 -0.66 3.96 -1 6 C-1.99 6.33 -2.98 6.66 -4 7 C-4.6875 5.1875 -4.6875 5.1875 -5 3 C-3.38441968 0.84589291 -2.74502455 0 0 0 Z " fill="#0F2824" transform="translate(110,60)"/>
<path d="M0 0 C5.28 0 10.56 0 16 0 C16 0.33 16 0.66 16 1 C14.91332031 1.09087891 14.91332031 1.09087891 13.8046875 1.18359375 C8.82883467 1.61483433 3.91319609 2.07047641 -1 3 C-0.67 2.01 -0.34 1.02 0 0 Z " fill="#084C1B" transform="translate(56,20)"/>
<path d="M0 0 C0.33 0.99 0.66 1.98 1 3 C2.32 2.67 3.64 2.34 5 2 C4.01 3.98 3.02 5.96 2 8 C1.67 7.01 1.34 6.02 1 5 C0.01 5 -0.98 5 -2 5 C-1.34 3.35 -0.68 1.7 0 0 Z " fill="#053D12" transform="translate(101,72)"/>
<path d="M0 0 C0.99 0.495 0.99 0.495 2 1 C2.6328125 3.06640625 2.6328125 3.06640625 3.125 5.5625 C3.29257813 6.38878906 3.46015625 7.21507812 3.6328125 8.06640625 C3.75398438 8.70449219 3.87515625 9.34257813 4 10 C3.34 10 2.68 10 2 10 C1.34 10.66 0.68 11.32 0 12 C0 8.04 0 4.08 0 0 Z " fill="#33B73E" transform="translate(90,54)"/>
<path d="M0 0 C0.66 0.33 1.32 0.66 2 1 C-0.64 4.3 -3.28 7.6 -6 11 C-6.33 10.01 -6.66 9.02 -7 8 C-5.56640625 5.95703125 -5.56640625 5.95703125 -3.5625 3.8125 C-2.90378906 3.09707031 -2.24507812 2.38164062 -1.56640625 1.64453125 C-1.04949219 1.10183594 -0.53257813 0.55914063 0 0 Z " fill="#52A066" transform="translate(48,28)"/>
<path d="M0 0 C4.21878192 -0.19622241 7.17010894 0.19769832 11 2 C10.01 2.33 9.02 2.66 8 3 C8.33 4.65 8.66 6.3 9 8 C8.34 7.67 7.68 7.34 7 7 C7 6.01 7 5.02 7 4 C4.71546567 2.85773284 2.37491201 1.93746527 0 1 C0 0.67 0 0.34 0 0 Z " fill="#349F48" transform="translate(54,27)"/>
<path d="M0 0 C3.3 0 6.6 0 10 0 C9.67 0.99 9.34 1.98 9 3 C6.9375 3.6875 6.9375 3.6875 5 4 C5 3.34 5 2.68 5 2 C3.35 2 1.7 2 0 2 C0 1.34 0 0.68 0 0 Z " fill="#19362B" transform="translate(49,100)"/>
<path d="M0 0 C1.25541557 3.76624671 0.37061958 5.37188934 -1 9 C-1.66 8.67 -2.32 8.34 -3 8 C-3.1875 5.125 -3.1875 5.125 -3 2 C-2.01 1.34 -1.02 0.68 0 0 Z " fill="#02320A" transform="translate(35,55)"/>
<path d="M0 0 C0.66 0.33 1.32 0.66 2 1 C1.7452486 2.31571603 1.47065859 3.62760376 1.1875 4.9375 C1.03667969 5.66839844 0.88585937 6.39929687 0.73046875 7.15234375 C0.48941406 7.76207031 0.24835938 8.37179688 0 9 C-0.99 9.33 -1.98 9.66 -3 10 C-2.69201674 8.51988629 -2.378482 7.04092675 -2.0625 5.5625 C-1.88847656 4.73878906 -1.71445313 3.91507813 -1.53515625 3.06640625 C-1 1 -1 1 0 0 Z " fill="#04350D" transform="translate(110,51)"/>
<path d="M0 0 C0.66 0.33 1.32 0.66 2 1 C-0.64 4.3 -3.28 7.6 -6 11 C-6.66 10.34 -7.32 9.68 -8 9 C-5.36 6.03 -2.72 3.06 0 0 Z " fill="#0C551B" transform="translate(44,30)"/>
<path d="M0 0 C2.475 0.495 2.475 0.495 5 1 C5 2.65 5 4.3 5 6 C3.68 5.67 2.36 5.34 1 5 C0.67 3.35 0.34 1.7 0 0 Z " fill="#36C45B" transform="translate(62,30)"/>
<path d="M0 0 C0.33 0.66 0.66 1.32 1 2 C-2.3125 2.6875 -2.3125 2.6875 -6 3 C-7.9375 1.5625 -7.9375 1.5625 -9 0 C-5.49270578 -1.16909807 -3.55692677 -0.85056945 0 0 Z " fill="#012F08" transform="translate(70,26)"/>
<path d="M0 0 C0.99 0.66 1.98 1.32 3 2 C2.34 2.66 1.68 3.32 1 4 C1 4.66 1 5.32 1 6 C-1.97 5.505 -1.97 5.505 -5 5 C-3.35 3.35 -1.7 1.7 0 0 Z " fill="#0E3A1A" transform="translate(83,96)"/>
<path d="M0 0 C1.67542976 0.28604898 3.34385343 0.61781233 5 1 C4.67 1.99 4.34 2.98 4 4 C2.35 4 0.7 4 -1 4 C-1 1 -1 1 0 0 Z " fill="#043307" transform="translate(86,105)"/>
<path d="M0 0 C1.32 1.32 2.64 2.64 4 4 C1.6875 5.5625 1.6875 5.5625 -1 7 C-1.99 6.67 -2.98 6.34 -4 6 C-2.68 4.02 -1.36 2.04 0 0 Z " fill="#05421B" transform="translate(76,76)"/>
<path d="M0 0 C0.33 0 0.66 0 1 0 C1 2.31 1 4.62 1 7 C1.99 7 2.98 7 4 7 C4 7.99 4 8.98 4 10 C2.68 9.67 1.36 9.34 0 9 C-1.10844919 5.67465243 -0.84454356 3.37817425 0 0 Z " fill="#042A11" transform="translate(12,67)"/>
<path d="M0 0 C0.33 0.66 0.66 1.32 1 2 C0.06553465 4.03144641 -0.93224776 6.03533587 -2 8 C-2.66 8 -3.32 8 -4 8 C-3.6875 5.125 -3.6875 5.125 -3 2 C-2.01 1.34 -1.02 0.68 0 0 Z " fill="#013C08" transform="translate(42,41)"/>
<path d="M0 0 C0.99 0 1.98 0 3 0 C2.40072174 3.35595828 1.15377564 5.37801226 -1 8 C-1.33 6.02 -1.66 4.04 -2 2 C-1.34 2 -0.68 2 0 2 C0 1.34 0 0.68 0 0 Z " fill="#122C1B" transform="translate(88,30)"/>
<path d="M0 0 C2.46800047 1.15173355 4.04783565 2.04783565 6 4 C5.625 6.125 5.625 6.125 5 8 C5 7.01 5 6.02 5 5 C3.35 4.67 1.7 4.34 0 4 C0 2.68 0 1.36 0 0 Z " fill="#08340A" transform="translate(82,20)"/>
<path d="M0 0 C1.25541557 3.76624671 0.37061958 5.37188934 -1 9 C-1.12375 8.360625 -1.2475 7.72125 -1.375 7.0625 C-1.684375 6.0415625 -1.684375 6.0415625 -2 5 C-2.66 4.67 -3.32 4.34 -4 4 C-2.68 2.68 -1.36 1.36 0 0 Z " fill="#449D56" transform="translate(112,85)"/>
<path d="M0 0 C0.99 0.33 1.98 0.66 3 1 C2.34 1.61875 1.68 2.2375 1 2.875 C-1.2284549 4.75637427 -1.2284549 4.75637427 -1 7 C-1.99 6.67 -2.98 6.34 -4 6 C-2.84826645 3.53199953 -1.95216435 1.95216435 0 0 Z " fill="#032E05" transform="translate(69,87)"/>
<path d="M0 0 C1.32 0 2.64 0 4 0 C4 1.32 4 2.64 4 4 C2.35 4 0.7 4 -1 4 C-0.67 2.68 -0.34 1.36 0 0 Z " fill="#36C046" transform="translate(90,80)"/>
<path d="M0 0 C0.66 0.66 1.32 1.32 2 2 C1.74739753 5.78903708 -0.27849443 7.54186593 -3 10 C-2.01 6.7 -1.02 3.4 0 0 Z " fill="#4C9F5A" transform="translate(61,78)"/>
<path d="M0 0 C-1.75 4.875 -1.75 4.875 -4 6 C-4.66 4.68 -5.32 3.36 -6 2 C-3 0 -3 0 0 0 Z " fill="#013602" transform="translate(92,76)"/>
<path d="M0 0 C0.66 0 1.32 0 2 0 C2.33 1.65 2.66 3.3 3 5 C1.68 5.33 0.36 5.66 -1 6 C-0.67 4.02 -0.34 2.04 0 0 Z " fill="#49B959" transform="translate(33,68)"/>
<path d="M0 0 C0.99 0.33 1.98 0.66 3 1 C2.01 2.98 1.02 4.96 0 7 C-0.66 7 -1.32 7 -2 7 C-1.125 2.25 -1.125 2.25 0 0 Z " fill="#52A963" transform="translate(25,52)"/>
<path d="M0 0 C1.65 0.33 3.3 0.66 5 1 C3.35 2.98 1.7 4.96 0 7 C-1.33332095 4.3333581 -0.67102033 2.83319697 0 0 Z " fill="#3FA951" transform="translate(64,86)"/>
<path d="M0 0 C0.33 0.99 0.66 1.98 1 3 C1.66 3 2.32 3 3 3 C2.34 4.32 1.68 5.64 1 7 C0.01 6.67 -0.98 6.34 -2 6 C-1.125 1.125 -1.125 1.125 0 0 Z " fill="#46B966" transform="translate(75,70)"/>
<path d="M0 0 C2 2 2 2 2.125 5.125 C2.08375 6.07375 2.0425 7.0225 2 8 C1.01 8 0.02 8 -1 8 C-0.67 5.36 -0.34 2.72 0 0 Z " fill="#52B062" transform="translate(26,66)"/>
<path d="M0 0 C3.36591866 1.44253657 5.51047079 3.33264727 8 6 C4.38462395 6 2.88834003 5.10770759 0 3 C0 2.01 0 1.02 0 0 Z " fill="#093D19" transform="translate(53,32)"/>
<path d="M0 0 C1.32 0.66 2.64 1.32 4 2 C-0.75 5 -0.75 5 -3 5 C-3 4.01 -3 3.02 -3 2 C-2.01 2 -1.02 2 0 2 C0 1.34 0 0.68 0 0 Z " fill="#3AB250" transform="translate(81,105)"/>
<path d="M0 0 C0.33 0.99 0.66 1.98 1 3 C-0.98 3.99 -0.98 3.99 -3 5 C-3.66 4.34 -4.32 3.68 -5 3 C-2.25 0 -2.25 0 0 0 Z " fill="#40B564" transform="translate(70,82)"/>
<path d="M0 0 C0.33 0.99 0.66 1.98 1 3 C0.01 3.99 -0.98 4.98 -2 6 C-2.99 5.67 -3.98 5.34 -5 5 C-5 4.34 -5 3.68 -5 3 C-2.5 1.375 -2.5 1.375 0 0 Z " fill="#012F0A" transform="translate(77,80)"/>
<path d="M0 0 C0.99 0 1.98 0 3 0 C2.67 1.65 2.34 3.3 2 5 C1.01 5 0.02 5 -1 5 C-0.67 3.35 -0.34 1.7 0 0 Z " fill="#0A241B" transform="translate(99,77)"/>
<path d="M0 0 C0.99 0.33 1.98 0.66 3 1 C1.625 3.5 1.625 3.5 0 6 C-0.66 6 -1.32 6 -2 6 C-1.125 1.125 -1.125 1.125 0 0 Z " fill="#35B846" transform="translate(72,78)"/>
<path d="M0 0 C0.99 0 1.98 0 3 0 C3 3.96 3 7.92 3 12 C2.67 12 2.34 12 2 12 C1.93941406 11.38511719 1.87882812 10.77023438 1.81640625 10.13671875 C1.73261719 9.32847656 1.64882812 8.52023438 1.5625 7.6875 C1.48128906 6.88699219 1.40007812 6.08648437 1.31640625 5.26171875 C1.04734307 2.83912821 1.04734307 2.83912821 0 0 Z " fill="#092916" transform="translate(114,60)"/>
<path d="M0 0 C2.4375 0.8125 2.4375 0.8125 5 2 C5.33 2.99 5.66 3.98 6 5 C4.02 4.34 2.04 3.68 0 3 C0 2.01 0 1.02 0 0 Z " fill="#033D0F" transform="translate(44,43)"/>
<path d="M0 0 C3.36179774 1.44077046 5.59156268 3.24750021 8 6 C8 6.66 8 7.32 8 8 C4.65001479 6.88333826 4.20659778 6.25305075 2.3125 3.4375 C1.87550781 2.79683594 1.43851562 2.15617187 0.98828125 1.49609375 C0.49908203 0.75552734 0.49908203 0.75552734 0 0 Z " fill="#49B358" transform="translate(71,26)"/>
<path d="M0 0 C2.31 0 4.62 0 7 0 C7.33 0.66 7.66 1.32 8 2 C7.67 2.66 7.34 3.32 7 4 C4.07175348 3.02391783 2.38573379 1.89213369 0 0 Z " fill="#41A04C" transform="translate(74,14)"/>
</svg>
